<?xml version="1.0" encoding="UTF-8"?>
<svg width="12px" height="6px" viewBox="0 0 12 6" version="1.1" xmlns="http://www.w3.org/2000/svg" xmlns:xlink="http://www.w3.org/1999/xlink">
    <!-- Generator: Sketch 56.2 (81672) - https://sketch.com -->
    <title>editor</title>
    <desc>Created with Sketch.</desc>
    <g id="Page-2" stroke="none" stroke-width="1" fill="none" fill-rule="evenodd">
        <g id="Artboard-Copy-31" transform="translate(-622.000000, -174.000000)">
            <g id="editor" transform="translate(622.000000, 174.000000)">
                <path d="M2.38603252,0 L11.31659,0 C11.8160544,0 12.1058876,0.405477962 11.9639506,0.905660377 L10.7753274,5.09433962 C10.6333904,5.59452204 10.1134319,6 9.61396748,6 L0.683409979,6 C0.183945603,6 -0.105887621,5.59452204 0.0360493545,5.09433962 L1.22467264,0.905660377 C1.36660961,0.405477962 1.88656814,0 2.38603252,0 Z" id="Rectangle" fill="#4C75E5"></path>
                <path d="M4.48751174,4.03943662 L3.91079813,4.61558685 L2.30985915,3.01615023 L3.91924883,1.4084507 L4.49521127,1.98478873 L3.46234743,3.01633803 L4.48751174,4.03943662 Z M6.18234743,4.53596244 L5.37971831,4.53596244 L5.88938968,1.42122065 L6.69239437,1.42122065 L6.18234743,4.53596244 Z M8.03962442,4.61596244 L7.46234743,4.03943662 L8.48638498,3.01615023 L7.45352113,1.98460094 L8.03004695,1.4084507 L9.64075118,3.01633803 L8.03962442,4.61596244 Z" id="Combined-Shape" fill="#FFFFFF"></path>
            </g>
        </g>
    </g>
</svg>