<?xml version="1.0" standalone="no"?><!DOCTYPE svg PUBLIC "-//W3C//DTD SVG 1.1//EN" "http://www.w3.org/Graphics/SVG/1.1/DTD/svg11.dtd"><svg class="icon" width="200px" height="175.34px" viewBox="0 0 1168 1024" version="1.1" xmlns="http://www.w3.org/2000/svg"><path d="M15.661176 963.764706a566.211765 54.211765 0 1 0 1132.42353 0 566.211765 54.211765 0 1 0-1132.42353 0Z" fill="#DDDDDD" /><path d="M7.408941 165.622965l642.903341-160.286118 198.186165 794.864941-642.903341 160.286118z" fill="#F8F8F8" /><path d="M7.408941 165.622965l39.743247-9.902683 4.951341 19.877647-39.743247 9.902683-4.951341-19.877647z m232.966024 765.084611l39.755294-9.902682 4.939294 19.877647-39.7312 9.902683-4.963388-19.877648z m-153.47953-784.902023l39.743247-9.902682 4.951342 19.877647-39.743248 9.902682-4.951341-19.877647z m234.134589 764.795482l39.755294-9.902682 4.939294 19.877647-39.7312 9.902682-4.963388-19.877647z m-153.47953-784.902023l39.755294-9.91473 4.939294 19.877647-39.743247 9.91473-4.939294-19.877647z m234.146635 764.795482l39.743247-9.914729 4.939295 19.877647-39.7312 9.902682-4.951342-19.877647z m-153.479529-784.902023l39.7312-9.91473 4.951341 19.877647-39.743247 9.902683-4.939294-19.877647z m232.966024 765.084611l39.743247-9.914729 4.939294 19.877647-39.7312 9.902682-4.951341-19.877647z m-152.323012-785.191153l39.755294-9.914729 4.939294 19.877647-39.743247 9.902682-4.939294-19.877647z m232.97807 765.084612l39.743247-9.914729 4.939295 19.877647-39.7312 9.902682-4.951342-19.877647z m-153.479529-784.91407l39.7312-9.902683 4.951341 19.877647-39.743247 9.902683-4.939294-19.877647z m234.134588 764.795482l39.743247-9.902682 4.939294 19.877647-39.7312 9.902682-4.951341-19.877647z m-153.479529-784.902024l39.7312-9.902682 4.951341 19.877647-39.743247 9.902682-4.939294-19.877647z m234.134588 764.795483l39.743247-9.902683 4.939294 19.8656-39.7312 9.91473-4.951341-19.877647z m-153.479529-784.902024l39.7312-9.914729 4.963388 19.877647-39.755294 9.902682-4.939294-19.877647z m232.966023 765.084612l39.743247-9.914729 4.939294 19.877647-39.7312 9.902682-4.951341-19.8656z m-765.446023-590.113129l9.914729 39.755294-19.877647 4.939294-9.902682-39.743247 19.8656-4.939294z m19.817411 79.486494l9.91473 39.755294-19.877647 4.939294-9.902683-39.743247 19.877647-4.939294z m19.817412 79.486494l9.91473 39.755294-19.877648 4.939294-9.902682-39.743247 19.877647-4.939294z m19.817412 79.486494l9.914729 39.755294-19.877647 4.939294-9.902682-39.743247 19.877647-4.939294z m19.817412 79.486494l9.914729 39.755294-19.877647 4.939294-9.902682-39.743247 19.877647-4.939294z m19.817411 79.486494l9.91473 39.755294-19.877647 4.939294-9.902683-39.743247 19.877647-4.939294z m19.817412 79.486494l9.91473 39.755294-19.877647 4.939295-9.902683-39.743248 19.877647-4.939294z m39.634824 158.972989l9.914729 39.755294-19.877647 4.939294-9.902682-39.743247 19.877647-4.939294z m-19.805365-79.486495l9.902682 39.755295-19.877647 4.939294-9.902682-39.743247 19.877647-4.939295z m39.634824 158.972989l9.902682 39.755294-19.877647 4.939294-9.902683-39.743247 19.877648-4.939294z m434.754258-910.456471l9.91473 39.743247-19.877647 4.939294-9.902683-39.7312 19.877647-4.951341z m19.817412 79.486494l9.91473 39.743247-19.877648 4.939294-9.902682-39.7312 19.877647-4.951341z m19.817412 79.486494l9.914729 39.743247-19.877647 4.939294-9.902682-39.7312 19.877647-4.951341z m19.817412 79.486494l9.914729 39.743247-19.877647 4.951342-9.902682-39.743247 19.877647-4.951342z m19.829458 79.486495l9.902683 39.743247-19.877647 4.951341-9.902683-39.743247 19.877647-4.951341z m19.817412 79.486494l9.902683 39.743247-19.877647 4.951341-9.902683-39.743247 19.877647-4.951341z m19.817412 79.486494l9.902682 39.743247-19.877647 4.951341-9.902682-39.743247 19.877647-4.951341z m39.634824 158.972988l9.902682 39.743247-19.877647 4.951341-9.902683-39.743247 19.877648-4.951341z m-19.817412-79.486494l9.902682 39.743247-19.877647 4.951341-9.902682-39.743247 19.877647-4.951341z m39.634823 158.972988l9.902683 39.743247-19.877647 4.951341-9.902683-39.743247 19.877647-4.951341z" fill="#BBBBBB" /><path d="M963.668329 961.162541l-642.915388-160.298165 198.186165-794.864941 642.903341 160.298165z" fill="#F8F8F8" /><path d="M1161.842447 166.2976l-39.743247-9.914729-4.939294 19.877647 39.7312 9.902682 4.951341-19.877647z m-234.134588 764.795482l-39.743247-9.914729-4.951341 19.877647 39.743247 9.902682 4.951341-19.877647z m153.479529-784.902023l-39.743247-9.91473-4.939294 19.877647 39.7312 9.902683 4.951341-19.877647z m-234.134588 764.795482l-39.755294-9.914729-4.939294 19.877647 39.743247 9.902682 4.939294-19.877647z m153.479529-784.91407l-39.743247-9.902683-4.939294 19.877647 39.7312 9.902683 4.951341-19.877647z m-232.966023 765.084611l-39.755294-9.902682-4.939294 19.877647 39.743247 9.902682 4.939294-19.877647z m152.310965-785.191153l-39.743247-9.902682-4.951342 19.877647 39.743247 9.902682 4.951342-19.877647z m-232.966024 765.084612l-39.755294-9.902682-4.939294 19.877647 39.743247 9.902682 4.939294-19.877647z m153.479529-784.902023l-39.743247-9.91473-4.951341 19.877647 39.743247 9.91473 4.951341-19.877647z m-234.134588 764.795482l-39.755294-9.914729-4.939294 19.877647 39.743247 9.902682 4.939294-19.877647z m153.47953-784.902024l-39.743247-9.914729-4.951342 19.877647 39.743247 9.902682 4.951342-19.877647z m-234.134589 764.795483l-39.755294-9.91473-4.939294 19.877647 39.743247 9.902683 4.939294-19.877647z m153.47953-784.902024l-39.743247-9.914729-4.951341 19.877647 39.743247 9.902682 4.951341-19.877647z m-232.966024 765.084612l-39.755294-9.914729-4.939294 19.877647 39.743247 9.902682 4.939294-19.877647z m152.310965-785.2032l-39.743247-9.902682-4.951341 19.877647 39.743247 9.902682 4.951341-19.877647z m-232.966024 765.084612l-39.755294-9.902683-4.939294 19.877648 39.7312 9.902682 4.963388-19.877647z m766.602542-589.824l-9.902683 39.755294 19.877647 4.939294 9.902683-39.7312-19.877647-4.951341z m-19.817412 79.498541l-9.902682 39.743247 19.877647 4.939294 9.902682-39.7312-19.877647-4.951341z m-19.817412 79.486494l-9.902682 39.743247 19.877647 4.939294 9.902682-39.7312-19.877647-4.951341z m-19.817412 79.486494l-9.902682 39.743247 19.877647 4.939294 9.902682-39.7312-19.877647-4.951341z m-19.817411 79.486494l-9.902683 39.743247 19.877647 4.939295 9.902683-39.7312-19.877647-4.951342z m-19.817412 79.486494l-9.902683 39.743248 19.8656 4.951341 9.91473-39.755294-19.877647-4.939295z m-19.817412 79.486495l-9.914729 39.743247 19.877647 4.951341 9.902682-39.743247-19.8656-4.951341z m-39.634823 158.972988l-9.91473 39.743247 19.877647 4.951341 9.902683-39.743247-19.877648-4.951341z m19.817411-79.486494l-9.914729 39.743247 19.877647 4.951341 9.902682-39.743247-19.877647-4.951341z m-39.634823 158.972988l-9.91473 39.743247 19.877647 4.951341 9.902683-39.743247-19.877647-4.951341z m-434.766306-910.468518l-9.902682 39.755294 19.877647 4.939295 9.902682-39.743248-19.877647-4.939294z m-19.817412 79.486494l-9.902682 39.755295 19.877647 4.939294 9.902682-39.743247-19.877647-4.939295z m-19.817412 79.486495l-9.914729 39.755294 19.877647 4.939294 9.914729-39.743247-19.877647-4.939294z m-19.817411 79.486494l-9.91473 39.755294 19.877647 4.939294 9.902683-39.743247-19.8656-4.939294z m-19.817412 79.486494l-9.91473 39.755294 19.877647 4.939294 9.902683-39.743247-19.877647-4.939294z m-19.817412 79.486494l-9.914729 39.755294 19.877647 4.939294 9.902682-39.7312-19.877647-4.963388z m-19.817412 79.486494l-9.914729 39.755294 19.877647 4.939294 9.902682-39.7312-19.877647-4.963388z m-39.634823 158.972988l-9.91473 39.755294 19.877647 4.939294 9.902683-39.7312-19.877647-4.963388z m19.817412-79.486494l-9.91473 39.755294 19.877647 4.939294 9.902683-39.7312-19.877648-4.963388z m-39.634824 158.972988l-9.914729 39.755294 19.877647 4.939295 9.902682-39.7312-19.877647-4.963389z" fill="#BBBBBB" /><path d="M196.367059 6.023529h771.011765v963.764706h-771.011765z" fill="#FFFFFF" /><path d="M196.367059 6.023529h48.188235v24.094118h-48.188235v-24.094118z m48.188235 939.670589h48.188235v24.094117h-48.188235v-24.094117z m48.188235-939.670589h48.188236v24.094118h-48.188236v-24.094118z m48.188236 939.670589h48.188235v24.094117h-48.188235v-24.094117z m48.188235-939.670589h48.188235v24.094118h-48.188235v-24.094118z m48.188235 939.670589h48.188236v24.094117h-48.188236v-24.094117z m48.188236-939.670589h48.188235v24.094118h-48.188235v-24.094118z m48.188235 939.670589h48.188235v24.094117h-48.188235v-24.094117z m48.188235-939.670589h48.188235v24.094118h-48.188235v-24.094118z m48.188235 939.670589h48.188236v24.094117h-48.188236v-24.094117z m48.188236-939.670589h48.188235v24.094118h-48.188235v-24.094118z m48.188235 939.670589h48.188235v24.094117h-48.188235v-24.094117z m48.188235-939.670589h48.188236v24.094118h-48.188236v-24.094118z m48.188236 939.670589h48.188235v24.094117h-48.188235v-24.094117z m48.188235-939.670589h48.188235v24.094118h-48.188235v-24.094118z m48.188235 939.670589h48.188236v24.094117h-48.188236v-24.094117z m-698.729412-891.482353v48.188235h-24.094117v-48.188235h24.094117z m0 96.37647v48.188236h-24.094117v-48.188236h24.094117z m0 96.376471v48.188235h-24.094117v-48.188235h24.094117z m0 96.37647v48.188236h-24.094117v-48.188236h24.094117z m0 96.376471v48.188235h-24.094117v-48.188235h24.094117z m0 96.376471v48.188235h-24.094117v-48.188235h24.094117z m0 96.37647v48.188236h-24.094117v-48.188236h24.094117z m0 192.752941v48.188236h-24.094117v-48.188236h24.094117z m0-96.37647v48.188235h-24.094117v-48.188235h24.094117z m0 192.752941v48.188235h-24.094117v-48.188235h24.094117z m746.917648-915.576471v48.188236h-24.094118v-48.188236h24.094118z m0 96.376471v48.188235h-24.094118v-48.188235h24.094118z m0 96.376471v48.188235h-24.094118v-48.188235h24.094118z m0 96.37647v48.188235h-24.094118v-48.188235h24.094118z m0 96.376471v48.188235h-24.094118v-48.188235h24.094118z m0 96.37647v48.188236h-24.094118v-48.188236h24.094118z m0 96.376471v48.188235h-24.094118v-48.188235h24.094118z m0 192.752941v48.188235h-24.094118v-48.188235h24.094118z m0-96.37647v48.188235h-24.094118v-48.188235h24.094118z m0 192.752941v48.188235h-24.094118v-48.188235h24.094118z" fill="#BBBBBB" /><path d="M509.590588 174.682353h144.564706l-24.094118 433.694118h-96.37647z" fill="#EEEEEE" /><path d="M581.872941 728.847059m-72.282353 0a72.282353 72.282353 0 1 0 144.564706 0 72.282353 72.282353 0 1 0-144.564706 0Z" fill="#EEEEEE" /><path d="M556.574118 584.282353h50.597647l21.684706-385.505882h-93.967059l21.684706 385.505882z m-46.98353-409.6h144.564706l-24.094118 433.694118h-96.37647l-24.094118-433.694118zM581.872941 777.035294c26.503529 0 48.188235-21.684706 48.188235-48.188235s-21.684706-48.188235-48.188235-48.188235-48.188235 21.684706-48.188235 48.188235 21.684706 48.188235 48.188235 48.188235z m0 24.094118c-39.755294 0-72.282353-32.527059-72.282353-72.282353s32.527059-72.282353 72.282353-72.282353 72.282353 32.527059 72.282353 72.282353-31.322353 72.282353-72.282353 72.282353z" fill="#BBBBBB" /></svg>