<?xml version="1.0" encoding="UTF-8"?>
<svg width="20px" height="20px" viewBox="0 0 20 20" version="1.1" xmlns="http://www.w3.org/2000/svg" xmlns:xlink="http://www.w3.org/1999/xlink">
    <!-- Generator: Sketch 52.5 (67469) - http://www.bohemiancoding.com/sketch -->
    <title>Google</title>
    <desc>Created with Sketch.</desc>
    <g id="response" stroke="none" stroke-width="1" fill="none" fill-rule="evenodd">
        <g id="Google">
            <path d="M19.995964,10.2170421 C19.995964,9.39523996 19.927952,8.79553379 19.7807393,8.17363369 L10.2091109,8.17363369 L10.2091109,11.8828208 L15.8274525,11.8828208 C15.7142258,12.8046033 15.1025375,14.192811 13.7432368,15.1256024 L13.7241758,15.2497943 L16.7505495,17.5483643 L16.9602198,17.5688737 C18.8858342,15.8252889 19.995964,13.2599216 19.995964,10.2170225" id="Path" fill="#4285F4"></path>
            <path d="M10.2091109,19.9898531 C12.9616384,19.9898531 15.2723876,19.1013712 16.9602198,17.5688932 L13.7432368,15.1256024 C12.8823776,15.7142018 11.726953,16.1251126 10.2091109,16.1251126 C7.51320679,16.1251126 5.22509491,14.3816063 4.40947053,11.971714 L4.28991009,11.981665 L1.14305694,14.3693438 L1.1018981,14.4815083 C2.77832168,17.7465034 6.22185814,19.9898531 10.2091109,19.9898531" id="Path" fill="#34A853"></path>
            <path d="M4.40947053,11.971714 C4.19424575,11.3498139 4.06969031,10.683428 4.06969031,9.99492654 C4.06969031,9.30634672 4.19424575,8.64003918 4.39814186,8.01813908 L4.39244755,7.88570029 L1.20613387,5.4596474 L1.1018981,5.50826641 C0.410949051,6.86315377 0.0144855145,8.38464251 0.0144855145,9.99492654 C0.0144855145,11.6052106 0.410949051,13.126621 1.1018981,14.4815083 L4.40947053,11.971714" id="Path" fill="#FBBC05"></path>
            <path d="M10.2091109,3.86468168 C12.1233966,3.86468168 13.4147053,4.67537708 14.151009,5.35285015 L17.0281518,2.59868756 C15.2611389,0.988383937 12.9616384,0 10.2091109,0 C6.22185814,0 2.77834166,2.24329089 1.1018981,5.50826641 L4.39814186,8.01815867 C5.22511489,5.60826641 7.51322677,3.86468168 10.2091309,3.86468168" id="Path" fill="#EB4335"></path>
        </g>
    </g>
</svg>